<?xml version="1.0" encoding="utf-8"?>
<!-- Generator: Adobe Illustrator 24.0.1, SVG Export Plug-In . SVG Version: 6.00 Build 0)  -->
<svg version="1.1" id="Layer_1" xmlns="http://www.w3.org/2000/svg" xmlns:xlink="http://www.w3.org/1999/xlink" x="0px" y="0px"
	 viewBox="0 0 1080 1080" style="enable-background:new 0 0 1080 1080;" xml:space="preserve">
<style type="text/css">
	.st0{fill:#DDDDDD;}
	.st1{fill:none;stroke:#03060C;stroke-width:15.7853;stroke-linecap:round;stroke-miterlimit:10;stroke-dasharray:2.155,32.3243;}
	.st2{fill:#02203E;}
	.st3{fill:#D8D8D8;}
	.st4{fill:#1277D6;}
	.st5{fill:#FD852F;}
</style>
<path class="st0" d="M759.87,714.2c-4.97,0-9.81,0.53-14.53,1.4c1.93-11.37,3-23.03,3-34.97c0-111.21-87.74-201.37-195.99-201.37
	c-102,0-185.77,80.07-195.09,182.37c-17.17-10.44-37.14-16.54-58.54-16.54c-63.67,0-115.29,53.03-115.29,118.45
	c0,65.42,51.61,118.45,115.29,118.45h461.15c45.1,0,81.66-37.56,81.66-83.9C841.52,751.76,804.97,714.2,759.87,714.2L759.87,714.2z"
	/>
<path class="st1" d="M700.91,183.22c0,18.44-14.55,33.38-32.49,33.38c-17.95,0-32.49-14.94-32.49-33.38
	c0-18.44,14.55-33.38,32.49-33.38C686.36,149.83,700.91,164.78,700.91,183.22L700.91,183.22z"/>
<path class="st2" d="M951,268.48c0-34.74-27.44-62.92-61.25-62.92c-33.83,0-61.25,28.18-61.25,62.92
	c0,34.76,27.42,62.93,61.25,62.93C923.56,331.42,951,303.24,951,268.48L951,268.48z"/>
<path class="st2" d="M488.75,385.7c0-8-6.32-14.48-14.1-14.48c-7.79,0-14.1,6.49-14.1,14.48c0,8,6.31,14.48,14.1,14.48
	C482.43,400.19,488.75,393.7,488.75,385.7L488.75,385.7z"/>
<path class="st3" d="M744.29,359.73c0-8-6.32-14.48-14.1-14.48c-7.79,0-14.1,6.49-14.1,14.48c0,8,6.31,14.48,14.1,14.48
	C737.97,374.21,744.29,367.73,744.29,359.73L744.29,359.73z"/>
<path class="st4" d="M848.05,548.43c-11.02,0-19.98,9.22-19.98,20.56c0,11.31,8.96,20.52,19.98,20.52
	c11.02,0,19.98-9.22,19.98-20.52C868.03,557.64,859.06,548.43,848.05,548.43L848.05,548.43z M848.05,605.61
	c-19.65,0-35.64-16.46-35.64-36.62c0-20.2,15.99-36.66,35.64-36.66c19.66,0,35.65,16.46,35.65,36.66
	C883.69,589.15,867.7,605.61,848.05,605.61L848.05,605.61z"/>
<path class="st1" d="M608.71,775.68c0,18.44-14.55,33.38-32.49,33.38c-17.95,0-32.49-14.94-32.49-33.38
	c0-18.44,14.55-33.38,32.49-33.38C594.16,742.3,608.71,757.25,608.71,775.68L608.71,775.68z"/>
<path class="st5" d="M415.44,236.64c-15.77,0-28.6,13.19-28.6,29.43c0,16.19,12.83,29.38,28.6,29.38c15.77,0,28.6-13.19,28.6-29.38
	C444.03,249.83,431.21,236.64,415.44,236.64L415.44,236.64z M415.44,318.49c-28.13,0-51.02-23.56-51.02-52.42
	c0-28.92,22.89-52.47,51.02-52.47c28.14,0,51.02,23.56,51.02,52.47C466.46,294.93,443.57,318.49,415.44,318.49L415.44,318.49z"/>
</svg>
