<svg xmlns="http://www.w3.org/2000/svg" viewBox="0 0 997.21 264.16"><defs><style>.a{fill:#ddd;}.b{fill:#1277d6;}.c{fill:none;stroke:#03060c;stroke-linecap:round;stroke-miterlimit:10;stroke-width:4.3px;stroke-dasharray:0.59 8.81;}.d{fill:#d8d8d8;}</style></defs><title>aboutusteamsection</title><text x="-44.59" y="-367.84"/><path class="a" d="M989.69,586.24a21.63,21.63,0,0,0-4,.39,56.51,56.51,0,0,0,.82-9.54c0-30.32-23.92-54.91-53.44-54.91-27.81,0-50.66,21.83-53.2,49.73a30.58,30.58,0,0,0-16-4.51c-17.36,0-31.44,14.46-31.44,32.3S846.58,632,863.94,632H989.69c12.29,0,22.26-10.24,22.26-22.88s-10-22.88-22.26-22.88Z" transform="translate(-44.59 -367.84)"/><path class="b" d="M706.1,425c-12.23,0-22.18,10.23-22.18,22.83s10,22.79,22.18,22.79,22.19-10.23,22.19-22.79S718.34,425,706.1,425Zm0,63.49c-21.82,0-39.58-18.27-39.58-40.66s17.76-40.7,39.58-40.7,39.58,18.27,39.58,40.7-17.75,40.66-39.58,40.66Z" transform="translate(-44.59 -367.84)"/><path class="a" d="M201.78,508.76a21.63,21.63,0,0,0-4,.38,56.51,56.51,0,0,0,.82-9.54c0-30.32-23.92-54.9-53.44-54.9-27.81,0-50.66,21.83-53.2,49.72a30.64,30.64,0,0,0-16-4.51c-17.36,0-31.44,14.46-31.44,32.3s14.08,32.3,31.44,32.3H201.78c12.29,0,22.26-10.24,22.26-22.88s-10-22.87-22.26-22.87Z" transform="translate(-44.59 -367.84)"/><path class="c" d="M992.79,404.63a8.86,8.86,0,1,1-8.86-9.1,9,9,0,0,1,8.86,9.1Z" transform="translate(-44.59 -367.84)"/><path class="c" d="M590.89,556.51a8.86,8.86,0,1,1-8.86-9.1,9,9,0,0,1,8.86,9.1Z" transform="translate(-44.59 -367.84)"/><path class="c" d="M335.62,408.69a8.86,8.86,0,1,1-8.86-9.11,9,9,0,0,1,8.86,9.11Z" transform="translate(-44.59 -367.84)"/><path class="d" d="M232.63,385a16.71,16.71,0,1,0-16.71,17.16A16.94,16.94,0,0,0,232.63,385Z" transform="translate(-44.59 -367.84)"/><path class="d" d="M405.61,388.84a3.85,3.85,0,1,0-3.84,4,3.9,3.9,0,0,0,3.84-4Z" transform="translate(-44.59 -367.84)"/><path class="d" d="M668.18,585.92a16.71,16.71,0,1,0-16.7,17.16,16.93,16.93,0,0,0,16.7-17.16Z" transform="translate(-44.59 -367.84)"/><path class="d" d="M1041.8,450.9a16.71,16.71,0,1,0-16.7,17.16,16.93,16.93,0,0,0,16.7-17.16Z" transform="translate(-44.59 -367.84)"/><path class="d" d="M147.44,596.42a3.85,3.85,0,1,0-3.85,4,3.9,3.9,0,0,0,3.85-4Z" transform="translate(-44.59 -367.84)"/><path class="d" d="M915,419.18a3.85,3.85,0,1,0-3.84,3.95,3.9,3.9,0,0,0,3.84-3.95Z" transform="translate(-44.59 -367.84)"/><path class="d" d="M985.44,475.78a3.85,3.85,0,1,0-3.85,4,3.91,3.91,0,0,0,3.85-4Z" transform="translate(-44.59 -367.84)"/><path class="b" d="M391.66,550.48a12.75,12.75,0,1,0,12.4,12.76,12.59,12.59,0,0,0-12.4-12.76Zm0,35.49c-12.2,0-22.12-10.22-22.12-22.73s9.92-22.75,22.12-22.75,22.13,10.21,22.13,22.75S403.86,586,391.66,586Z" transform="translate(-44.59 -367.84)"/><path class="b" d="M1013.73,541a5.61,5.61,0,1,0,5.45,5.61,5.54,5.54,0,0,0-5.45-5.61Zm0,15.59a10,10,0,1,1,9.72-10,9.87,9.87,0,0,1-9.72,10Z" transform="translate(-44.59 -367.84)"/><path class="b" d="M85.36,419.06a5.61,5.61,0,1,0,5.45,5.61,5.54,5.54,0,0,0-5.45-5.61Zm0,15.6a10,10,0,1,1,9.72-10,9.87,9.87,0,0,1-9.72,10Z" transform="translate(-44.59 -367.84)"/><path class="b" d="M895,378.54a8,8,0,1,0,7.8,8,7.92,7.92,0,0,0-7.8-8Zm0,22.32a14.31,14.31,0,1,1,13.91-14.3A14.13,14.13,0,0,1,895,400.86Z" transform="translate(-44.59 -367.84)"/><path class="c" d="M599.26,383.37a8.86,8.86,0,1,1-8.86-9.1,9,9,0,0,1,8.86,9.1Z" transform="translate(-44.59 -367.84)"/><path class="b" d="M230.15,595.7a5.6,5.6,0,1,0,5.45,5.61,5.53,5.53,0,0,0-5.45-5.61Zm0,15.59a10,10,0,1,1,9.72-10,9.88,9.88,0,0,1-9.72,10Z" transform="translate(-44.59 -367.84)"/><path class="d" d="M413.68,458.35A16.71,16.71,0,1,0,397,475.51a16.94,16.94,0,0,0,16.7-17.16Z" transform="translate(-44.59 -367.84)"/></svg>