<svg id="LOCATION_ICON" data-name="LOCATION ICON" xmlns="http://www.w3.org/2000/svg" width="17.922" height="26.621" viewBox="0 0 17.922 26.621">
  <path id="Path_986" data-name="Path 986" d="M-304.436,113.863a8.823,8.823,0,0,1,6.639,2.951,8.684,8.684,0,0,1,2.108,4.11,9.024,9.024,0,0,1-.472,5.356,10.19,10.19,0,0,1-.89,1.644c-.448.712-.849,1.454-1.269,2.183l-4.36,7.567q-.77,1.336-1.537,2.673c-.052.091-.111.164-.222.129a.377.377,0,0,1-.207-.118q-2.3-3.978-4.593-7.963c-.739-1.283-1.473-2.57-2.216-3.851-.3-.524-.66-1.02-.933-1.558a9.949,9.949,0,0,1-.615-1.543,8.641,8.641,0,0,1-.222-4.337,8.891,8.891,0,0,1,2.751-4.87,8.939,8.939,0,0,1,3.635-2.046A9.549,9.549,0,0,1-304.436,113.863Zm5.415,8.622a5.423,5.423,0,0,0-5.407-5.4,5.406,5.406,0,0,0-5.421,5.46,5.416,5.416,0,0,0,5.375,5.371A5.422,5.422,0,0,0-299.021,122.485Z" transform="translate(313.402 -113.863)" fill="#f19024"/>
</svg>
