<svg xmlns="http://www.w3.org/2000/svg" viewBox="0 0 816.63 542.3"><defs><style>.a{fill:#ddd;}.b{fill:#fff;}.c{fill:#1277d6;}.d{fill:#d8d8d8;}.e{fill:#02203e;}.f{fill:none;stroke:#03060c;stroke-linecap:round;stroke-miterlimit:10;stroke-width:10.79px;stroke-dasharray:1.47 22.1;}.g{fill:#fd852f;}</style></defs><title>Brandidentitypagesideicon</title><path class="a" d="M905.18,417.55a54.27,54.27,0,0,0-9.93,1,142.48,142.48,0,0,0,2-23.9c0-76-60-137.64-134-137.64-69.72,0-127,54.73-133.36,124.65a76.73,76.73,0,0,0-40-11.3c-43.52,0-78.8,36.25-78.8,81s35.28,81,78.8,81H905.18C936,532.25,961,506.58,961,474.9s-25-57.35-55.82-57.35Z" transform="translate(-147 -233.72)"/><path class="a" d="M419.55,327.92c0,12.08-9.53,21.88-21.29,21.88S377,340,377,327.92,386.49,306,398.26,306s21.29,9.8,21.29,21.89Z" transform="translate(-147 -233.72)"/><polygon class="b" points="242.13 83.06 242.13 106.93 264.84 94.2 242.13 83.06 242.13 83.06"/><path d="M446.12,249.14H348.39a13.13,13.13,0,0,0-13.06,13.2V399.82A13.13,13.13,0,0,0,348.39,413h97.74a13.13,13.13,0,0,0,13.06-13.2V262.32a13.12,13.12,0,0,0-13.07-13.18ZM401.33,408.47h-8a4,4,0,0,1-4-3.63,3.85,3.85,0,0,1,3.82-4.11h8a4,4,0,0,1,4,3.63,3.86,3.86,0,0,1-3.83,4.11Zm43.45-12.75H349.29V264.61h95.49V395.72Z" transform="translate(-147 -233.72)"/><path class="c" d="M786.72,585.26c-10.53,0-19.1,8.82-19.1,19.67s8.57,19.63,19.1,19.63,19.11-8.82,19.11-19.63-8.57-19.67-19.11-19.67Zm0,54.69c-18.79,0-34.09-15.74-34.09-35s15.3-35.06,34.09-35.06,34.09,15.74,34.09,35.06-15.29,35-34.09,35Z" transform="translate(-147 -233.72)"/><path class="d" d="M864.78,699.51a17.89,17.89,0,1,0-17.88,18.37,18.14,18.14,0,0,0,17.88-18.37Z" transform="translate(-147 -233.72)"/><path class="e" d="M944.55,363.42a9.64,9.64,0,1,0-9.64,9.9,9.78,9.78,0,0,0,9.64-9.9Z" transform="translate(-147 -233.72)"/><path class="d" d="M296.78,425.41a9.64,9.64,0,1,0-9.64,9.9,9.77,9.77,0,0,0,9.64-9.9Z" transform="translate(-147 -233.72)"/><path class="f" d="M603.62,261.94c0,12.6-9.94,22.81-22.2,22.81s-22.22-10.21-22.22-22.81,9.95-22.82,22.22-22.82,22.2,10.21,22.2,22.82Z" transform="translate(-147 -233.72)"/><path class="e" d="M279.53,332.86c0,25.15-19.85,45.54-44.33,45.54S190.87,358,190.87,332.86s19.85-45.55,44.33-45.55,44.33,20.39,44.33,45.55Z" transform="translate(-147 -233.72)"/><path class="b" d="M265.24,347.4c-.4-1.32-1.93-1.91-3-2.5-1.26-.67-8.93-4.89-11.84-5.57-2.52-.59-3,1.46-3.81,3.33-.1.22-.19.44-.28.67l17.51,8.7c.78-1.3,1.8-3.48,1.45-4.63Z" transform="translate(-147 -233.72)"/><path class="b" d="M244.71,346.1a2,2,0,0,1-2.11.33c-8.72-3.62-15.64-10.84-21.77-19.19a2.07,2.07,0,0,1-.23-2.31,4.64,4.64,0,0,1,1.22-1l-9.45-14.84a17.73,17.73,0,0,0-3.92,5.34c-.68,1.65-1.45,2.85-.81,4.81a63.28,63.28,0,0,0,17.17,27.06c10.5,9.55,24.13,13,30,13.55,1.32.14,2.87-1.19,3.88-2a31,31,0,0,0,3.67-3.88l-17.05-8.47a2.54,2.54,0,0,1-.59.59Z" transform="translate(-147 -233.72)"/><path class="b" d="M226.83,320.35c.94-.74,1-2.15.23-3.46a125.43,125.43,0,0,0-7-10.71c-.74-.65-1.69-1.83-3.26-.78a23.82,23.82,0,0,0-2.75,1.94l9.75,15.31c1.2-.9,1.71-1.25,3.05-2.3Z" transform="translate(-147 -233.72)"/><path class="c" d="M214.88,656.28c-10.53,0-19.1,8.82-19.1,19.67s8.57,19.63,19.1,19.63S234,686.76,234,676s-8.57-19.67-19.11-19.67Zm0,54.69c-18.79,0-34.09-15.74-34.09-35s15.3-35.06,34.09-35.06S249,656.63,249,676s-15.29,35-34.09,35Z" transform="translate(-147 -233.72)"/><path class="d" d="M182.76,385.53a17.89,17.89,0,1,0-17.88,18.37,18.14,18.14,0,0,0,17.88-18.37Z" transform="translate(-147 -233.72)"/><path class="e" d="M253.37,570.15a9.64,9.64,0,1,0-9.64,9.91,9.77,9.77,0,0,0,9.64-9.91Z" transform="translate(-147 -233.72)"/><path class="f" d="M203.1,499.41c0,12.6-9.95,22.81-22.21,22.81S158.68,512,158.68,499.41s9.94-22.82,22.21-22.82,22.21,10.22,22.21,22.82Z" transform="translate(-147 -233.72)"/><path class="f" d="M958.23,620.75c0,12.6-9.94,22.82-22.21,22.82s-22.21-10.22-22.21-22.82,10-22.82,22.21-22.82,22.21,10.22,22.21,22.82Z" transform="translate(-147 -233.72)"/><circle class="g" cx="333.76" cy="346.33" r="195.96"/><path class="b" d="M655.61,747.53l-.41.41a28.84,28.84,0,0,1-40.78,0l-79.81-86.85,34.15-34.15,86.85,79.81a28.84,28.84,0,0,1,0,40.78Z" transform="translate(-147 -233.72)"/><path class="b" d="M521.85,614.18a97.8,97.8,0,1,1,0-138.31,97.91,97.91,0,0,1,0,138.31ZM572.3,545A119.53,119.53,0,1,0,518.48,645l7.55,7.56,33.87-33.87-7.5-7.49A118.78,118.78,0,0,0,572.3,545Z" transform="translate(-147 -233.72)"/><path class="b" d="M485.63,618.52a5.64,5.64,0,0,0,2.92-.82,84.88,84.88,0,0,0,16.23-132.65,81.85,81.85,0,0,0-6.18-5.61,5.68,5.68,0,1,0-7.22,8.78c1.86,1.52,3.66,3.16,5.37,4.86A73.47,73.47,0,0,1,482.69,608a5.69,5.69,0,0,0,2.94,10.56Z" transform="translate(-147 -233.72)"/></svg>